<?xml version="1.0" encoding="utf-8"?>
<!-- Generator: Adobe Illustrator 16.0.3, SVG Export Plug-In . SVG Version: 6.00 Build 0)  -->
<!DOCTYPE svg PUBLIC "-//W3C//DTD SVG 1.1//EN" "http://www.w3.org/Graphics/SVG/1.1/DTD/svg11.dtd">
<svg version="1.1" id="Layer_1" xmlns="http://www.w3.org/2000/svg" xmlns:xlink="http://www.w3.org/1999/xlink" x="0px" y="0px"
	 width="71.415px" height="90.66px" viewBox="0 0 71.415 90.66" enable-background="new 0 0 71.415 90.66" xml:space="preserve">
<path stroke="#000000" stroke-width="0.5" stroke-miterlimit="10" d="M61.709,79.64c0,5.948-11.641,10.771-26,10.771
	c-14.364,0-26.005-4.822-26.005-10.771s11.641-10.771,26.005-10.771C50.069,68.869,61.709,73.691,61.709,79.64z"/>
<polygon stroke="#000000" stroke-width="0.5" stroke-miterlimit="10" points="61.708,80.038 9.707,80.038 1.707,16.039 
	69.708,16.039 "/>
<path fill="#FFFFFF" stroke="#000000" stroke-width="5" stroke-miterlimit="10" d="M46.675,4.5v5.58h-21.94V4.5c0-1.11,0.9-2,2-2
	h17.94C45.786,2.5,46.675,3.39,46.675,4.5z"/>
<path stroke="#000000" stroke-width="0.5" stroke-miterlimit="10" d="M71.165,13.455c0,1.104-1.193,2-2.663,2H2.914
	c-1.472,0-2.664-0.896-2.664-2V9.924c0-1.104,1.192-2,2.664-2h65.587c1.47,0,2.663,0.896,2.663,2V13.455z"/>
<path fill="#FFFFFF" stroke="#000000" stroke-miterlimit="10" d="M38.772,74.488c0,0.895-0.896,1.619-2,1.619h-2.129
	c-1.104,0-2-0.725-2-1.619V24.837c0-0.894,0.896-1.619,2-1.619h2.129c1.104,0,2,0.725,2,1.619V74.488z"/>
<path fill="#FFFFFF" stroke="#000000" stroke-miterlimit="10" d="M24.735,74.247c0.056,0.894-0.792,1.673-1.895,1.742l-2.125,0.133
	c-1.102,0.069-2.042-0.598-2.097-1.49l-3.111-49.554c-0.056-0.892,0.792-1.672,1.895-1.741l2.125-0.133
	c1.102-0.069,2.042,0.598,2.097,1.491L24.735,74.247z"/>
<path fill="#FFFFFF" stroke="#000000" stroke-miterlimit="10" d="M45.986,74.247c-0.057,0.894,0.793,1.673,1.895,1.742l2.126,0.133
	c1.102,0.069,2.041-0.598,2.097-1.49l3.11-49.554c0.057-0.892-0.792-1.672-1.895-1.741l-2.125-0.133
	c-1.102-0.069-2.042,0.598-2.097,1.491L45.986,74.247z"/>
</svg>
